# AST/ASF file generated using VICON BodyLanguage
# -----------------------------------------------
:version 1.10
:name VICON
:units
  mass 1.0
  length 0.45
  angle deg
:documentation
   .ast/.asf automatically generated from VICON data using
   VICON BodyBuilder and BodyLanguage model FoxedUp or BRILLIANT.MOD
:root
   order TX TY TZ RX RY RZ
   axis XYZ
   position 0 0 0  
   orientation 0 0 0 
:bonedata
  begin
     id 1 
     name lhipjoint
     direction 0.61522 -0.761478 0.204097 
     length 2.55743 
     axis 0 0 0  XYZ
  end
  begin
     id 2 
     name lfemur
     direction 0.34202 -0.939693 0  
     length 7.61162  
     axis 0 0 20  XYZ
    dof rx ry rz
    limits (-160.0 20.0)
           (-70.0 70.0)
           (-60.0 70.0)
  end
  begin
     id 3 
     name ltibia
     direction 0.34202 -0.939693 0   
     length 8.12393   
     axis 0 0 20   XYZ
    dof rx
    limits (-10.0 170.0)
  end
  begin
     id 4 
     name lfoot
     direction 0.0841971 -0.23133 0.969225   
     length 2.3572   
     axis -90 7.62852e-016 20   XYZ
    dof rx rz
    limits (-45.0 90.0)
           (-70.0 20.0)
  end
  begin
     id 5 
     name ltoes
     direction 1.53562e-011 -4.22209e-011 1   
     length 1.17993   
     axis -90 7.62852e-016 20   XYZ
    dof rx
    limits (-90.0 20.0)
  end
  begin
     id 6 
     name rhipjoint
     direction -0.625247 -0.75382 0.202044   
     length 2.58341  
     axis 0 0 0  XYZ 
  end
  begin
     id 7 
     name rfemur
     direction -0.34202 -0.939693 0   
     length 7.42147   
     axis 0 0 -20   XYZ
    dof rx ry rz
    limits (-160.0 20.0)
           (-70.0 70.0)
           (-70.0 60.0)
  end
  begin
     id 8 
     name rtibia
     direction -0.34202 -0.939693 0   
     length 8.20893   
     axis 0 0 -20   XYZ
    dof rx
    limits (-10.0 170.0)
 end
 begin
     id 9 
     name rfoot
     direction -0.124331 -0.341598 0.931586   
     length 2.45604  
     axis -90 -7.62852e-016 -20   XYZ
    dof rx rz
    limits (-45.0 90.0)
           (-20.0 70.0)
  end
  begin
     id 10 
     name rtoes
     direction -1.5353e-011 -4.2199e-011 1   
     length 1.21323   
     axis -90 -7.62852e-016 -20   XYZ
    dof rx
    limits (-90.0 20.0)
  end
  begin
     id 11 
     name lowerback
     direction -0.0218484 0.994884 -0.0986303   
     length 2.00523   
     axis 0 0 0   XYZ
    dof rx ry rz
    limits (-20.0 45.0)
           (-30.0 30.0)
           (-30.0 30.0)
  end
  begin
     id 12 
     name upperback
     direction -0.0097305 0.999717 -0.0217111   
     length 2.01352   
     axis 0 0 0   XYZ
    dof rx ry rz
    limits (-20.0 45.0)
           (-30.0 30.0)
           (-30.0 30.0)
  end
  begin
     id 13 
     name thorax
     direction -0.000928262 0.999699 0.0245198   
     length 2.02938   
     axis 0 0 0   XYZ
    dof rx ry rz
    limits (-20.0 45.0)
           (-30.0 30.0)
           (-30.0 30.0)
  end
  begin
     id 14 
     name lowerneck
     direction -0.0307979 0.998024 0.0547665   
     length 1.77263   
     axis 0 0 0   XYZ
    dof rx ry rz
    limits (-20.0 45.0)
           (-30.0 30.0)
           (-30.0 30.0)
  end
  begin
     id 15 
     name upperneck
     direction 0.0531587 0.996611 -0.0627734   
     length 1.77971   
     axis 0 0 0   XYZ
    dof rx ry rz
    limits (-20.0 45.0)
           (-30.0 30.0)
           (-30.0 30.0)
  end
  begin
     id 16
     name head
     direction 0.0213833 0.999404 -0.0271147  
     length 1.78263  
     axis 0 0 0   XYZ
    dof rx ry rz
    limits (-20.0 45.0)
           (-30.0 30.0)
           (-30.0 30.0)
  end
  begin
     id 17 
     name lclavicle
     direction 0.940017 0.332249 -0.0773233  
     length 3.73315  
     axis 0 0 0   XYZ
    dof ry rz
    limits (-20.0 10.0)
           (0.0 20.0)
  end
  begin
     id 18 
     name lhumerus
     direction 1 -4.48944e-011 7.52288e-028   
     length 5.40188   
     axis 180 -30 -90   XYZ
    dof rx ry rz
    limits (-60.0 90.0)
           (-90.0 90.0)
           (-90.0 90.0)
  end
  begin
     id 19
     name lradius
     direction 1 -4.48988e-011 1.48381e-027   
     length 3.68559   
     axis 180 -30 -90   XYZ
    dof rx
    limits (-10.0 170.0)
  end
  begin
     id 20
     name lwrist
     direction 1 -4.48925e-011 2.56952e-028   
     length 1.84279   
     axis -5.12785e-016 90 90   XYZ
    dof ry
    limits (-180.0 0.0)
 end
  begin
     id 21 
     name lhand
     direction 1 -4.49009e-011 5.13905e-028   
     length 0.61753   
     axis -3.27915e-016 90 90   XYZ
    dof rx rz
    limits (-90.0 90.0)
           (-45.0 45.0)
  end
  begin
     id 22 
     name lfingers
     direction 1 -4.49012e-011 1.02781e-027   
     length 0.497868   
     axis -6.5583e-016 90 90   XYZ
    dof rx
    limits (0.0 90.0)
  end
  begin
     id 23
     name lthumb
     direction 0.707107 -6.34987e-011 0.707107   
     length 0.714842   
     axis -90 45 2.85299e-015   XYZ
    dof rx rz
    limits (-45.0 45.0)
           (-45.0 45.0)
  end
  begin
     id 24 
     name rclavicle
     direction -0.9009 0.425937 -0.0834057   
     length 3.27864  
     axis 0 0 0   XYZ 
    dof ry rz
    limits (-10.0 20.0)
           (-20.0 0.0)
  end
  begin
     id 25 
     name rhumerus
     direction -1 -4.48953e-011 -1.03572e-027  
     length 6.1067   
     axis 180 30 90   XYZ
    dof rx ry rz
    limits (-90.0 60.0)
           (-90.0 90.0)
           (-90.0 90.0)
  end
  begin
     id 26 
     name rradius
     direction -1 -4.48975e-011 1.20742e-027   
     length 3.63052   
     axis 180 30 90   XYZ
    dof rx
    limits (-10.0 170.0)
  end
  begin
     id 27 
     name rwrist
     direction -1 -4.49017e-011 2.56952e-028   
     length 1.81526   
     axis -5.12785e-016 -90 -90   XYZ
    dof ry
    limits (-180.0 0.0)
  end
  begin
     id 28
     name rhand
     direction -1 -4.48832e-011 5.13905e-028   
     length 0.583848   
     axis -3.27915e-016 -90 -90   XYZ
    dof rx rz
    limits (-90.0 90.0)
           (-45.0 45.0)
  end
  begin
     id 29
     name rfingers
     direction -1 -4.48729e-011 1.02781e-027   
     length 0.470713   
     axis -6.5583e-016 -90 -90   XYZ
    dof rx
    limits (0.0 90.0)
  end
  begin
     id 30
     name rthumb
     direction -0.707107 -6.34964e-011 0.707107   
     length 0.675852   
     axis -90 -45 -2.85299e-015   XYZ
    dof rx rz
    limits (-45.0 45.0)
           (-45.0 45.0)
  end
:hierarchy
  begin
    root lhipjoint rhipjoint lowerback
    lhipjoint lfemur
    lfemur ltibia
    ltibia lfoot
    lfoot ltoes
    rhipjoint rfemur
    rfemur rtibia
    rtibia rfoot
    rfoot rtoes
    lowerback upperback
    upperback thorax
    thorax lowerneck lclavicle rclavicle
    lowerneck upperneck
    upperneck head
    lclavicle lhumerus
    lhumerus lradius
    lradius lwrist
    lwrist lhand lthumb
    lhand lfingers
    rclavicle rhumerus
    rhumerus rradius
    rradius rwrist
    rwrist rhand rthumb
    rhand rfingers
  end

#!OML:ASF F:\VICON\USERDATA\INSTALL\rory3\rory3.ASF
:FULLY-SPECIFIED
:DEGREES
431
root -0.518706 20.5167 3.25316 -2.62127 -5.94007 1.84499
lowerback 5.31675 0.07929 -0.476845
upperback -0.246718 0.0861742 0.331881
thorax -3.23676 0.0535195 0.602506
lowerneck -11.6859 0.512579 -5.97862
upperneck 11.153 1.10375 4.64994
head 5.20919 0.61128 2.51748
rclavicle 8.39865e-015 -6.75868e-015
rhumerus -24.0788 -34.2614 -38.4173
rradius 49.4986
rwrist -25.6743
rhand -34.5009 -1.50799
rfingers 7.12502
rthumb -7.6631 -31.3492
lclavicle 8.39865e-015 -6.75868e-015
lhumerus -25.899 20.1981 44.9837
lradius 58.26
lwrist 42.292
lhand -25.8794 26.4788
lfingers 7.12502
lthumb 0.662241 56.4575
rfemur -9.49574 18.8168 10.5452
rtibia 34.0148
rfoot 18.2436 1.36598
rtoes -8.98435
lfemur -5.38166 2.67838 -16.5094
ltibia 32.1416
lfoot 18.5378 4.97158
ltoes -2.87701
432
root -0.51363 20.5984 3.28468 -2.70468 -5.82654 1.7415
lowerback 5.15097 0.0518997 -0.421817
upperback -0.265978 0.0557496 0.396921
thorax -3.16304 0.0378295 0.641011
lowerneck -11.7175 0.518659 -6.14706
upperneck 11.2859 1.10426 4.92058
head 5.2527 0.622705 2.63251
rclavicle 1.76608e-014 4.37326e-015
rhumerus -22.6306 -34.1394 -37.1789
rradius 50.1801
rwrist -25.1579
rhand -33.7227 -0.920799
rfingers 7.12502
rthumb -6.91192 -30.788
lclavicle 1.76608e-014 4.37326e-015
lhumerus -24.3844 19.9783 43.6167
lradius 58.7178
lwrist 42.1406
lhand -25.338 26.1314
lfingers 7.12502
lthumb 1.18509 56.1078
rfemur -9.25512 19.3424 10.4508
rtibia 33.7493
rfoot 17.202 -0.971589
rtoes -8.14859
lfemur -5.07533 2.20804 -16.1182
ltibia 31.8523
lfoot 17.0115 6.70277
ltoes -2.62337
433
root -0.511109 20.6649 3.30874 -2.76111 -5.66423 1.56554
lowerback 5.10584 0.030988 -0.353459
upperback -0.31732 0.0352033 0.489019
thorax -3.19038 0.0274335 0.699093
lowerneck -11.6683 0.49511 -6.27486
upperneck 11.2965 1.06197 5.14126
head 5.24777 0.61151 2.71963
rclavicle -1.4182e-014 -3.97569e-015
rhumerus -21.2091 -33.9883 -35.856
rradius 50.753
rwrist -24.5172
rhand -33.4179 -0.332402
rfingers 7.12502
rthumb -6.61762 -30.209
lclavicle -1.4182e-014 -3.97569e-015
lhumerus -22.8819 19.3219 42.2849
lradius 59.3966
lwrist 42.7301
lhand -26.959 26.2259
lfingers 7.12502
lthumb -0.380489 56.2053
rfemur -9.07677 19.777 10.4603
rtibia 33.5772
rfoot 15.6594 -3.16135
rtoes -7.92344
lfemur -4.87432 1.73128 -15.5995
ltibia 31.644
lfoot 15.3487 7.7348
ltoes -1.23583
434
root -0.510381 20.7211 3.33 -2.81728 -5.48043 1.38317
lowerback 5.03309 0.00238877 -0.293705
upperback -0.327665 0.00374215 0.581478
thorax -3.15971 0.0114716 0.763125
lowerneck -11.7089 0.428216 -6.23848
upperneck 11.3549 0.963937 5.15839
head 5.27875 0.566426 2.71289
rclavicle -3.01283e-015 1.59028e-014
rhumerus -19.7147 -33.8049 -34.534
rradius 51.262
rwrist -23.8629
rhand -33.9494 -0.176398
rfingers 7.12502
rthumb -7.13072 -30.0363
lclavicle -3.01283e-015 1.59028e-014
lhumerus -21.2355 18.664 40.8733
lradius 59.8189
lwrist 43.1159
lhand -28.1583 25.8752
lfingers 7.12502
lthumb -1.53879 55.8494
rfemur -8.90617 20.1678 10.4838
rtibia 33.4399
rfoot 13.5324 -4.99452
rtoes -8.50493
lfemur -4.73931 1.27288 -15.0363
ltibia 31.4578
lfoot 13.8919 8.12026
ltoes -0.172916
435
root -0.5101 20.7655 3.35252 -2.9726 -5.32888 1.31835
lowerback 5.04725 -0.040086 -0.348755
upperback -0.324036 -0.0544196 0.638719
thorax -3.16295 -0.016089 0.857471
lowerneck -11.7512 0.38838 -6.18602
upperneck 11.4344 0.901071 5.16157
head 5.31458 0.538159 2.70199
rclavicle 1.37721e-014 3.18055e-015
rhumerus -18.147 -33.5458 -33.2882
rradius 51.7896
rwrist -23.3779
rhand -34.4713 -0.0801167
rfingers 7.12502
rthumb -7.63449 -29.9223
lclavicle 1.37721e-014 3.18055e-015
lhumerus -19.5486 18.2566 39.3254
lradius 60.0358
lwrist 43.0687
lhand -27.6689 25.6923
lfingers 7.12502
lthumb -1.06611 55.6694
rfemur -8.64465 20.4617 10.389
rtibia 33.2828
rfoot 11.3535 -6.50288
rtoes -9.49623
lfemur -4.48929 0.792064 -14.5917
ltibia 31.2403
lfoot 12.7147 8.50751
ltoes 0.336712
436
root -0.508934 20.7963 3.37033 -3.1257 -5.16252 1.21813
lowerback 5.13514 -0.0757155 -0.34975
upperback -0.332723 -0.100554 0.68311
thorax -3.22046 -0.0384427 0.907607
lowerneck -11.8121 0.360064 -6.08502
upperneck 11.489 0.846338 5.16837
head 5.34549 0.516676 2.68469
rclavicle 5.42931e-015 -1.98785e-015
rhumerus -16.5553 -33.5062 -32.0752
rradius 52.2373
rwrist -22.7605
rhand -34.6949 0.196839
rfingers 7.12502
rthumb -7.85028 -29.6374
lclavicle 5.42931e-015 -1.98785e-015
lhumerus -17.6444 18.5764 37.9522
lradius 60.1355
lwrist 42.5811
lhand -27.3064 25.7563
lfingers 7.12502
lthumb -0.715974 55.7348
rfemur -8.41359 20.6284 10.3075
rtibia 33.0598
rfoot 9.79255 -7.9883
rtoes -9.73425
lfemur -4.23047 0.254982 -14.0979
ltibia 30.9528
lfoot 11.7379 8.98998
ltoes -0.0791378
437
root -0.505842 20.8133 3.39107 -3.29733 -4.93088 1.22968
lowerback 5.16371 -0.107077 -0.44463
upperback -0.298511 -0.147796 0.700977
thorax -3.20009 -0.0603872 0.982993
lowerneck -11.9393 0.295894 -6.0177
upperneck 11.5724 0.752942 5.16718
head 5.39873 0.47489 2.66831
rclavicle 9.42985e-015 -1.98785e-015
rhumerus -14.8758 -33.6257 -30.8269
rradius 52.5709
rwrist -22.2211
rhand -34.7918 0.407069
rfingers 7.12502
rthumb -7.9438 -29.4237
lclavicle 9.42985e-015 -1.98785e-015
lhumerus -15.6296 18.9995 36.7016
lradius 60.1852
lwrist 42.1907
lhand -27.0926 25.6145
lfingers 7.12502
lthumb -0.509572 55.5936
rfemur -8.13498 20.6914 10.0818
rtibia 32.7865
rfoot 8.87165 -9.18243
rtoes -8.24369
lfemur -3.94372 -0.425847 -13.742
ltibia 30.5912
lfoot 10.8569 9.46067
ltoes 0.121394
438
root -0.504898 20.8205 3.41706 -3.5276 -4.67746 1.28116
lowerback 5.22278 -0.145224 -0.576289
upperback -0.278016 -0.207632 0.681412
thorax -3.21056 -0.0881386 1.04167
lowerneck -12.0158 0.240593 -5.96198
upperneck 11.7205 0.658289 5.24259
head 5.46319 0.436708 2.67828
rclavicle -3.62782e-015 -1.59028e-014
rhumerus -13.2744 -33.5626 -29.5783
rradius 52.9909
rwrist -22.0364
rhand -34.76 0.379942
rfingers 7.12502
rthumb -7.91309 -29.452
lclavicle -3.62782e-015 -1.59028e-014
lhumerus -13.6961 18.982 35.282
lradius 60.2242
lwrist 42.3214
lhand -26.7269 25.4254
lfingers 7.12502
lthumb -0.156303 55.4051
rfemur -7.72185 20.854 9.8489
rtibia 32.4453
rfoot 7.92659 -9.78937
rtoes -7.30987
lfemur -3.56963 -1.22275 -13.4362
ltibia 30.2112
lfoot 10.066 9.6244
ltoes 0.811248
439
root -0.506993 20.8144 3.4372 -3.66123 -4.39369 1.34227
lowerback 5.31053 -0.187122 -0.761143
upperback -0.340824 -0.275815 0.667388
thorax -3.32248 -0.118148 1.13722
lowerneck -11.9034 0.20601 -5.98519
upperneck 11.7377 0.59274 5.35917
head 5.45281 0.410771 2.7132
rclavicle 1.1368e-014 -7.95139e-016
rhumerus -11.7319 -33.3627 -28.3046
rradius 53.4067
rwrist -21.7783
rhand -34.9369 0.107383
rfingers 7.12502
rthumb -8.08385 -29.718
lclavicle 1.1368e-014 -7.95139e-016
lhumerus -11.8757 18.7985 33.8232
lradius 60.3961
lwrist 42.6721
lhand -26.6618 25.3112
lfingers 7.12502
lthumb -0.0934015 55.2909
rfemur -7.43143 21.0114 9.56642
rtibia 32.0409
rfoot 6.84111 -9.84249
rtoes -8.57108
lfemur -3.33181 -1.98604 -13.1184
ltibia 29.8316
lfoot 9.41362 9.63213
ltoes 0.911035
440
root -0.508077 20.7952 3.45521 -3.74842 -4.11424 1.26756
lowerback 5.35891 -0.234881 -0.809629
upperback -0.391484 -0.341775 0.697202
thorax -3.39993 -0.149134 1.20112
lowerneck -11.7085 0.167646 -5.99615
upperneck 11.629 0.52796 5.4093
head 5.38963 0.380465 2.72282
rclavicle 7.82715e-015 3.57812e-015
rhumerus -10.1358 -33.2088 -27.0071
rradius 53.7329
rwrist -21.3937
rhand -35.5075 0.0647426
rfingers 7.12502
rthumb -8.63456 -29.7387
lclavicle 7.82715e-015 3.57812e-015
lhumerus -10.097 18.6729 32.3733
lradius 60.6082
lwrist 42.877
lhand -26.5621 25.2698
lfingers 7.12502
lthumb 0.00285878 55.2496
rfemur -7.20192 21.1911 9.41231
rtibia 31.5747
rfoot 6.11108 -9.6897
rtoes -9.66304
lfemur -3.16445 -2.74841 -12.6672
ltibia 29.4561
lfoot 8.99532 9.703
ltoes 0.0878143
441
root -0.506913 20.7611 3.47594 -3.86858 -3.88888 1.07576
lowerback 5.42623 -0.278734 -0.685039
upperback -0.407801 -0.391168 0.733496
thorax -3.45389 -0.175256 1.17322
lowerneck -11.6217 0.152105 -6.0174
upperneck 11.5406 0.489729 5.54497
head 5.34907 0.369879 2.76451
rclavicle -2.80783e-015 -1.15295e-014
rhumerus -8.49414 -33.2092 -25.7703
rradius 54.0026
rwrist -20.8908
rhand -35.5908 0.0395185
rfingers 7.12502
rthumb -8.71491 -29.7606
lclavicle -2.80783e-015 -1.15295e-014
lhumerus -8.08515 18.7994 31.0301
lradius 60.6238
lwrist 42.6961
lhand -26.5155 25.576
lfingers 7.12502
lthumb 0.0478681 55.5557
rfemur -6.93097 21.413 9.39352
rtibia 31.0589
rfoot 5.75892 -9.34336
rtoes -9.6953
lfemur -2.97104 -3.57809 -12.1021
ltibia 29.0898
lfoot 8.69418 10.0239
ltoes 0.288961
442
root -0.506309 20.7152 3.49934 -3.94699 -3.65654 0.946176
lowerback 5.34399 -0.337879 -0.616114
upperback -0.358556 -0.465307 0.736134
thorax -3.35537 -0.214123 1.14231
lowerneck -11.6743 0.159008 -6.0316
upperneck 11.4502 0.477316 5.76367
head 5.32956 0.379756 2.83447
rclavicle -3.42904e-015 1.94809e-014
rhumerus -6.79976 -33.2851 -24.6416
rradius 54.3024
rwrist -20.4913
rhand -35.4305 0.163663
rfingers 7.12502
rthumb -8.56023 -29.6428
lclavicle -3.42904e-015 1.94809e-014
lhumerus -5.77175 19.5164 29.9319
lradius 60.4422
lwrist 42.1634
lhand -26.7917 25.7086
lfingers 7.12502
lthumb -0.218897 55.6882
rfemur -6.67648 21.5817 9.29448
rtibia 30.4982
rfoot 5.47696 -8.79671
rtoes -9.94591
lfemur -2.83812 -4.46792 -11.6141
ltibia 28.7359
lfoot 8.36522 10.3463
ltoes 0.836657
443
root -0.505043 20.659 3.52698 -4.02206 -3.37151 0.958337
lowerback 5.18113 -0.398464 -0.691268
upperback -0.260925 -0.551615 0.701197
thorax -3.16056 -0.257593 1.15318
lowerneck -11.8664 0.141228 -5.96693
upperneck 11.4415 0.443879 5.82739
head 5.36127 0.373349 2.84296
rclavicle -1.92573e-015 -8.74653e-015
rhumerus -5.03561 -33.5464 -23.5689
rradius 54.5734
rwrist -20.0074
rhand -35.8806 0.177126
rfingers 7.12502
rthumb -8.99461 -29.6111
lclavicle -1.92573e-015 -8.74653e-015
lhumerus -3.44493 20.6299 28.984
lradius 60.2948
lwrist 41.6406
lhand -26.8589 25.5197
lfingers 7.12502
lthumb -0.283764 55.4992
rfemur -6.36387 21.7577 9.05421
rtibia 29.9227
rfoot 5.13856 -8.0962
rtoes -11.0964
lfemur -2.70555 -5.43028 -11.323
ltibia 28.4062
lfoot 7.77755 10.4134
ltoes 0.380224
444
root -0.502996 20.5875 3.55098 -4.13004 -3.11164 0.893668
lowerback 5.17897 -0.461139 -0.680936
upperback -0.237585 -0.634701 0.69688
thorax -3.13336 -0.299409 1.14919
lowerneck -11.9381 0.115688 -5.99181
upperneck 11.4371 0.401923 5.94287
head 5.3741 0.361005 2.88097
rclavicle 1.89715e-014 5.1684e-015
rhumerus -3.22424 -33.8675 -22.5361
rradius 54.7764
rwrist -19.3379
rhand -36.1357 0.183711
rfingers 7.12502
rthumb -9.24077 -29.5938
lclavicle 1.89715e-014 5.1684e-015
lhumerus -1.51904 21.4243 27.9099
lradius 60.4306
lwrist 41.371
lhand -26.9192 25.6677
lfingers 7.12502
lthumb -0.342037 55.6472
rfemur -6.02882 21.9903 8.94765
rtibia 29.3691
rfoot 4.83141 -7.33833
rtoes -12.4524
lfemur -2.54443 -6.393 -10.9753
ltibia 28.0849
lfoot 7.11097 10.4881
ltoes -0.526424
